<!DOCTYPE svg PUBLIC "-//W3C//DTD SVG 1.1//EN" "http://www.w3.org/Graphics/SVG/1.1/DTD/svg11.dtd">
<!-- Uploaded to: SVG Repo, www.svgrepo.com, Transformed by: SVG Repo Mixer Tools -->
<svg fill="#000000" height="64px" width="64px" version="1.1" id="Layer_1" xmlns="http://www.w3.org/2000/svg" xmlns:xlink="http://www.w3.org/1999/xlink" viewBox="0 0 512 512" xml:space="preserve">
<g id="SVGRepo_bgCarrier" stroke-width="0"/>
<g id="SVGRepo_tracerCarrier" stroke-linecap="round" stroke-linejoin="round"/>
<g id="SVGRepo_iconCarrier"> <g> <g> <path d="M130.79,377.294c-25.208,0-45.716,20.579-45.716,45.875c0,25.295,20.508,45.873,45.716,45.873 c25.209,0,45.717-20.578,45.717-45.873C176.507,397.873,155.999,377.294,130.79,377.294z M130.79,453.369 c-16.566,0-30.043-13.547-30.043-30.2c0-16.654,13.477-30.202,30.043-30.202c16.566,0,30.044,13.548,30.044,30.202 C160.834,439.821,147.357,453.369,130.79,453.369z"/> </g> </g> <g> <g> <path d="M196.116,291.326c0.015-0.063,0.033-0.124,0.048-0.188c0.03-0.131,0.058-0.261,0.083-0.393 c0.039-0.159,0.072-0.312,0.102-0.457c1.182-5.332,1.701-14.727,1.784-17.025c0.008-0.129,0.014-0.258,0.016-0.389 c0.556-39.817-21.997-80.879-58.862-107.164c-0.215-0.153-0.438-0.292-0.659-0.433v-23.172 c12.735-2.193,23.974-9.666,30.981-20.944c2.284-3.677,1.156-8.509-2.52-10.793c-3.678-2.285-8.509-1.154-10.793,2.52 c-5.536,8.911-15.071,14.23-25.505,14.23c-16.566,0-30.043-13.547-30.043-30.2c0-15.76,12.074-28.733,27.41-30.078 c0.869,0.068,4.427,0.067,5.311-0.004c13.279,1.186,24.35,11.106,26.847,24.46c0.795,4.255,4.886,7.062,9.144,6.263 c4.255-0.795,7.058-4.889,6.263-9.143c-2.496-13.348-10.638-24.43-21.663-30.976c5.125-5.01,8.657-11.652,9.745-19.083h17.351 v6.945c0,4.328,3.509,7.837,7.837,7.837c4.328,0,7.837-3.509,7.837-7.837V19.524c0-4.328-3.509-7.837-7.837-7.837 c-4.328,0-7.837,3.509-7.837,7.837v3.164h-18.781C157.887,9.509,145.429,0,130.79,0c-18.402,0-33.372,15.018-33.372,33.48 c0,9.391,3.88,17.885,10.108,23.971c-13.43,8-22.453,22.697-22.453,39.473c0,22.613,16.394,41.444,37.88,45.186v23.172 c-0.223,0.142-0.447,0.282-0.664,0.436c-36.86,26.281-59.412,67.344-58.857,107.162c0.002,0.124,0.006,0.248,0.014,0.37 c0.08,2.225,0.585,11.405,1.728,16.78c0.048,0.281,0.083,0.467,0.112,0.61c0.051,0.26,0.126,0.512,0.191,0.768 c-23.496,33.969-36.58,72.884-36.049,111.028c0.002,0.118,0.006,0.236,0.013,0.352c0.099,2.722,0.929,18.107,2.692,26.22 c0.046,0.258,0.137,0.759,0.167,0.912c0.104,0.542,0.241,1.081,0.41,1.608C44.385,478.926,84.672,512,130.791,512 c46.569,0,87.009-33.536,98.342-81.552c0.038-0.157,0.069-0.315,0.096-0.472c0.069-0.274,0.132-0.549,0.189-0.824 c1.812-8.199,2.628-23.573,2.722-26.389c0.006-0.11,0.01-0.219,0.012-0.33C232.68,364.383,220.012,325.711,196.116,291.326z M130.79,15.673c9.759,0,17.698,7.988,17.698,17.806c0,9.818-7.94,17.806-17.698,17.806c-9.759,0-17.698-7.988-17.698-17.806 C113.091,23.662,121.03,15.673,130.79,15.673z M130.79,178.906c32.309,23.3,52.081,59.053,51.689,93.523 c-0.002,0.044-0.003,0.089-0.004,0.134c-0.006,0.25-0.02,0.59-0.04,0.992c-0.816-0.961-1.633-1.919-2.468-2.871 c-2.855-3.254-7.805-3.576-11.059-0.722c-3.254,2.855-3.577,7.806-0.722,11.059c3.77,4.297,7.335,8.72,10.701,13.244 c-7.699,21.023-26.632,35.183-48.096,35.183c-21.409,0-40.396-14.187-48.098-35.197c11.216-15.028,24.688-28.917,40.083-41.047 v24.74c0,4.328,3.509,7.837,7.837,7.837c4.328,0,7.837-3.509,7.837-7.837v-25.017c3.757,2.95,7.435,6.005,10.97,9.167 c3.227,2.884,8.18,2.607,11.065-0.62c2.884-3.227,2.607-8.182-0.62-11.065c-6.518-5.826-13.442-11.36-20.578-16.449 c-0.274-0.194-0.555-0.375-0.839-0.551V221.52c0-4.328-3.509-7.837-7.837-7.837c-4.328,0-7.837,3.509-7.837,7.837v12.123 c-0.162,0.106-0.326,0.205-0.484,0.318c-16.246,11.583-30.726,24.972-43.146,39.611c-0.02-0.409-0.033-0.754-0.041-1.006 c-0.001-0.039-0.002-0.076-0.004-0.114C78.704,237.973,98.474,202.213,130.79,178.906z M216.482,402.019 c-0.002,0.044-0.003,0.089-0.004,0.134c-0.063,2.852-0.976,17.383-2.374,23.661c-0.011,0.05-0.022,0.1-0.032,0.151 c-0.028,0.139-0.062,0.271-0.099,0.392c-0.12,0.393-0.207,0.792-0.262,1.194c-9.878,40.532-43.878,68.776-82.919,68.776 c-38.971,0-73.073-28.302-82.93-68.826c-0.054-0.221-0.118-0.441-0.191-0.658c-0.046-0.251-0.133-0.739-0.134-0.744 c-0.019-0.108-0.041-0.214-0.064-0.32c-1.393-6.288-2.306-20.784-2.369-23.625c-0.001-0.044-0.002-0.088-0.004-0.132 c-0.395-31.506,9.428-63.652,27.297-92.61c11.798,21.677,33.852,35.71,58.395,35.71c24.597,0,46.597-13.997,58.383-35.666 C207.138,338.718,216.868,371.139,216.482,402.019z"/> </g> </g> <g> <g> <path d="M381.211,377.293c-25.209,0.001-45.719,20.58-45.719,45.875c0,25.295,20.509,45.873,45.719,45.873 c25.207,0,45.714-20.578,45.714-45.873C426.925,397.873,406.418,377.293,381.211,377.293z M381.211,453.368 c-16.566,0-30.045-13.547-30.045-30.2c0-16.654,13.479-30.202,30.045-30.202c16.564,0.001,30.041,13.549,30.041,30.202 C411.252,439.821,397.776,453.368,381.211,453.368z"/> </g> </g> <g> <g> <path d="M381.211,345.121c24.597,0,46.598-14,58.384-35.67c17.508,28.407,27.32,59.882,27.319,90.744 c0,4.328,3.508,7.837,7.836,7.837c0.001,0,0.001,0,0.001,0c4.328,0,7.837-3.508,7.837-7.836 c0.002-37.357-13.064-75.441-36.081-108.75c0.026-0.103,0.055-0.204,0.079-0.307c0.032-0.138,0.062-0.275,0.087-0.413 c0.038-0.159,0.073-0.32,0.108-0.483c1.17-5.32,1.688-14.635,1.773-16.959c0.009-0.135,0.015-0.272,0.017-0.409 c0.553-39.818-22.001-80.879-58.861-107.162c-0.215-0.154-0.439-0.293-0.66-0.434v-23.173 c21.484-3.742,37.878-22.573,37.878-45.186c0-16.776-9.023-31.473-22.451-39.472c6.23-6.086,10.109-14.581,10.109-23.971 C414.583,15.018,399.613,0,381.211,0c-14.639,0-27.097,9.509-31.584,22.689h-19.118v-3.164c0-4.328-3.508-7.837-7.837-7.837 s-7.837,3.509-7.837,7.837v25.783c0,4.328,3.508,7.837,7.837,7.837s7.837-3.509,7.837-7.837v-6.945H348.2 c1.089,7.432,4.62,14.077,9.747,19.088c-13.43,8-22.454,22.696-22.454,39.473c0,22.613,16.394,41.444,37.882,45.186v23.172 c-0.223,0.141-0.446,0.281-0.662,0.436C335.85,192,313.296,233.062,313.852,272.88c0.002,0.136,0.007,0.272,0.017,0.406 c0.085,2.288,0.594,11.427,1.733,16.766l0.071,0.408c0.009,0.05,0.019,0.1,0.028,0.15c0.053,0.272,0.131,0.532,0.198,0.796 c-23.496,33.976-36.58,72.907-36.047,111.091c0.034,1.608,0.857,18.01,2.697,26.494c0.049,0.272,0.414,2.008,0.572,2.51 c11.67,47.411,51.963,80.497,98.09,80.497c22.004,0,42.94-7.361,60.546-21.288c17.447-13.801,30.032-32.789,36.396-54.911 c0.504-1.753,0.975-3.554,1.399-5.352c0.991-4.192-1.627-8.406-5.813-9.425c-4.202-1.02-8.426,1.561-9.448,5.768 c-0.047,0.191-0.815,3.332-1.202,4.676c-11.157,38.794-44.063,64.859-81.878,64.859c-38.973,0-73.076-28.304-82.934-68.832 c-0.053-0.219-0.362-1.609-0.385-1.72c-1.479-6.68-2.322-21.49-2.37-23.557c-0.438-31.57,9.384-63.794,27.286-92.818 C334.603,331.085,356.661,345.121,381.211,345.121z M381.211,329.448c-21.412,0-40.402-14.191-48.101-35.207 c11.299-15.143,24.899-29.117,40.442-41.314v25.016c0,4.328,3.508,7.837,7.837,7.837c4.329,0,7.837-3.509,7.837-7.837v-24.739 c15.377,12.125,28.851,26.026,40.074,41.085C421.592,315.3,402.665,329.448,381.211,329.448z M381.211,15.673 c9.759,0,17.698,7.988,17.698,17.806c0,9.818-7.94,17.806-17.698,17.806c-9.759,0-17.7-7.988-17.7-17.806 C363.512,23.662,371.452,15.673,381.211,15.673z M351.166,96.923c0-15.76,12.076-28.733,27.412-30.078 c0.869,0.068,4.396,0.068,5.265,0c15.335,1.346,27.408,14.318,27.408,30.078c0,16.653-13.476,30.2-30.041,30.2 C364.644,127.123,351.166,113.575,351.166,96.923z M381.212,178.908c32.303,23.297,52.072,59.04,51.689,93.506 c-0.002,0.049-0.004,0.099-0.005,0.148c-0.007,0.262-0.022,0.621-0.042,1.049c-12.431-14.675-26.917-28.084-43.148-39.656 c-0.157-0.112-0.321-0.21-0.481-0.316v-12.122c0-4.328-3.508-7.837-7.837-7.837c-4.329,0-7.837,3.509-7.837,7.837v11.888 c-0.283,0.176-0.565,0.356-0.839,0.552c-16.246,11.583-30.726,24.971-43.147,39.612c-0.02-0.414-0.034-0.761-0.041-1.008 c-0.001-0.048-0.003-0.097-0.005-0.145C329.133,237.952,348.902,202.212,381.212,178.908z"/> </g> </g> </g>
</svg>